<svg xmlns="http://www.w3.org/2000/svg" shape-rendering="geometricPrecision" text-rendering="geometricPrecision" image-rendering="optimizeQuality" fill-rule="evenodd" clip-rule="evenodd" viewBox="0 0 512.176 512.176"><path fill="#1689FC" d="M253.422 172.886L346.8 79.507c11.341-11.342 26.288-17.016 41.229-17.016 14.94 0 29.887 5.674 41.229 17.016l.068.072c11.296 11.334 16.948 26.251 16.948 41.157 0 14.937-5.673 29.884-17.013 41.226l-95.985 95.987c-6.917 6.917-15.622 11.896-24.986 14.67-9.375 2.775-19.459 3.322-29.103 1.37-12.796-2.59-20.783-9.21-28.727-15.795-16.45-17.096-43.529-18.599-62.063-.065l-.075.075c4.42 13.375 13.19 26.417 24.152 37.514 11.64 11.781 25.634 21.27 39.45 26.58 19.788 7.605 41.42 9.238 62.029 4.903 19.889-4.186 38.83-13.981 54.226-29.377l97.982-97.981c21.144-21.144 31.719-49.029 31.719-76.914 0-27.868-10.561-55.732-31.676-76.872l-.044-.042c-21.145-21.145-49.028-31.719-76.913-31.719-27.886 0-55.769 10.574-76.913 31.717l-97.982 97.983c-5.604 5.604-10.447 11.639-14.522 17.981a108.1 108.1 0 00-5.37 9.341 124.273 124.273 0 0126.274-2.805c11.003 0 22.005 1.459 32.688 4.373z"/><path fill="#5B9FFC" d="M214.476 297.698l37.91-37.911c7.339 6.035 15.038 11.82 26.801 14.202 9.644 1.952 19.728 1.405 29.103-1.37 9.364-2.774 18.069-7.753 24.986-14.67l95.985-95.987c11.34-11.342 17.013-26.289 17.013-41.226 0-14.185-5.118-28.381-15.349-39.488l35.235-35.233.044.042c21.115 21.14 31.676 49.004 31.676 76.872 0 27.885-10.575 55.77-31.719 76.914l-97.982 97.981c-15.396 15.396-34.337 25.191-54.226 29.377-20.609 4.335-42.241 2.702-62.029-4.903-13.034-5.009-26.225-13.737-37.448-24.6z"/><path fill="#A3D4FF" d="M41.107 471.058h.001c45.123 45.124 118.96 45.124 164.083 0l96.531-96.531a114.972 114.972 0 0028.236-46.213c-29.88 4.82-60.152 5.081-76.034.476l-95.341 95.34c-20.391 20.392-53.763 20.394-74.158 0-20.393-20.393-20.392-53.763.001-74.157l94.298-94.297c20.393-20.394 53.763-20.394 74.156-.001 1.992 1.991 6.739 4.885 12.357 7.736 22.287 11.305 43.499 7.568 63.749-9.638a114.963 114.963 0 00-27.264-43.33c-45.123-45.123-118.961-45.123-164.084 0l-96.531 96.531c-45.123 45.123-45.123 118.961 0 164.084z"/><path fill="#BFE0FF" d="M84.045 428.128l-38.208 38.208.002.002c21.143 21.144 49.027 31.718 76.914 31.718 27.886 0 55.769-10.574 76.914-31.718l97.981-97.981c5.798-5.798 10.771-12.039 14.913-18.581a106.457 106.457 0 004.983-8.762l-.685.148a124.32 124.32 0 01-63.515-3.282l-88.581 88.58c-11.342 11.342-26.289 17.016-41.23 17.016-14.185 0-28.382-5.119-39.488-15.348zm213.601-213.601l-35.11 35.11c5.672 4.593 11.642 8.813 19.443 10.391 7.33 1.483 15.056 1.051 22.29-1.09 6.2-1.837 12.019-4.952 16.884-9.214a107.295 107.295 0 00-8.817-16.984c-4.083-6.39-8.98-12.503-14.688-18.212l-.002-.001z"/><path fill="#1A1A1A" fill-rule="nonzero" d="M176.52 176.649a121.866 121.866 0 0111.304-22.38 122.478 122.478 0 0116.419-20.382l97.981-97.981C326.16 11.97 357.709 0 389.247 0c68.144 0 122.929 54.782 122.929 122.929 0 31.54-11.971 63.087-35.906 87.023l-97.982 97.981a121.905 121.905 0 01-42.769 27.74 122.073 122.073 0 01-10.898 21.696 122.37 122.37 0 01-16.864 21.096l-97.981 97.981c-47.639 47.639-126.409 47.641-174.046 0-47.64-47.637-47.639-126.407 0-174.046l97.981-97.981a121.978 121.978 0 0142.809-27.77zm76.824 161.231l-88.581 88.58c-22.575 22.575-59.882 22.575-82.457 0-22.67-22.671-22.669-59.784-.002-82.458l95.984-95.982c8.853-8.852 20.073-14.579 32.443-16.521 25.13-3.947 36.941 5.84 48.833 15.695 6.602 5.474 13.243 10.978 22.415 12.834 7.33 1.483 15.056 1.051 22.29-1.09 6.2-1.837 12.019-4.952 16.884-9.214-16.645-40.465-56.234-66.915-100.419-66.915-27.887 0-55.771 10.574-76.914 31.719l-97.981 97.981c-42.087 42.087-42.088 111.744 0 153.829 42.085 42.088 111.742 42.086 153.828 0l97.981-97.981c5.798-5.798 10.771-12.039 14.913-18.581a106.457 106.457 0 004.983-8.762l-.685.148a124.32 124.32 0 01-63.515-3.282zm78.67-98.887l87.135-87.136c8.552-8.554 12.829-19.836 12.829-31.121a43.808 43.808 0 00-43.949-43.949c-11.285 0-22.57 4.278-31.121 12.829l-88.438 88.44c28.065 11.729 50.64 33.492 63.544 60.937zm-78.592-66.107L346.8 79.507c11.341-11.342 26.288-17.016 41.229-17.016 32.278 0 58.245 25.968 58.245 58.245 0 14.937-5.673 29.884-17.013 41.226l-95.985 95.987c-6.917 6.917-15.622 11.896-24.986 14.67-9.375 2.775-19.459 3.322-29.103 1.37-12.796-2.59-20.783-9.21-28.727-15.795-9.427-7.813-18.791-15.57-37.552-12.624-9.378 1.471-17.887 5.935-24.586 12.634 4.42 13.375 13.19 26.417 24.152 37.514 11.64 11.781 25.634 21.27 39.45 26.58 19.788 7.605 41.42 9.238 62.029 4.903 19.889-4.186 38.83-13.981 54.226-29.377l97.982-97.981c21.144-21.144 31.719-49.029 31.719-76.914A108.31 108.31 0 00389.247 14.296c-27.886 0-55.769 10.574-76.913 31.717l-97.982 97.983c-5.604 5.604-10.447 11.639-14.522 17.981a108.1 108.1 0 00-5.37 9.341 124.273 124.273 0 0126.274-2.805c11.003 0 22.005 1.459 32.688 4.373zm-76.169 96.387l-84.84 84.838c-17.12 17.123-17.121 45.117.002 62.24 17.022 17.023 45.216 17.023 62.239 0l84.217-84.215c-13.02-6.271-25.752-15.483-36.561-26.423-10.645-10.774-19.509-23.299-25.057-36.44z"/></svg>